<svg xmlns="http://www.w3.org/2000/svg" xmlns:xlink="http://www.w3.org/1999/xlink" viewBox="0 0 26.14764 25.88746"><defs><style>.a{isolation:isolate;}.b{fill:#c3063c;}.c{mask:url(#a);}.d{fill:#e73450;}.e{fill:url(#b);}.f{fill:url(#c);}</style><mask id="a" x="0.55151" y="0.08336" width="24.7588" height="25.058" maskUnits="userSpaceOnUse"><image class="a" width="187" height="187" transform="translate(0.55151 0.08336) scale(0.1324 0.134)" xlink:href="Zasób 11.png"/></mask><linearGradient id="b" x1="-957.66653" y1="-672.74271" x2="-960.87246" y2="-679.76511" gradientTransform="matrix(1, 0.0674, 0.1291, -0.9913, 1049.57067, -599.9394)" gradientUnits="userSpaceOnUse"><stop offset="0" stop-color="#fff"/><stop offset="0.9841" stop-color="#fff" stop-opacity="0"/></linearGradient><linearGradient id="c" x1="-944.49275" y1="-671.71852" x2="-946.80586" y2="-676.78566" xlink:href="#b"/></defs><title>Zasób 1</title><path class="b" d="M26.0732,8.53346c-.939,7.217-8.963,13.936-15.377,17.354-1.723-6.633-11.574-11.891-10.633-19.105.939-7.217,8.792-9.159,13.57-3.459C18.8362-1.70554,27.01321,1.31546,26.0732,8.53346Z"/><g class="c"><path class="d" d="M23.9632,8.33446c-.832,6.413-6.814,11.473-12.271,15.525-.92-5.775-10.601-12.011-9.882-17.535.834-6.412,6.695-6.462,10.939-1.399C17.3772.46046,24.7992,1.92246,23.9632,8.33446Z"/></g><path class="e" d="M5.82121,2.36946c.006.01.014.02.021.031.713,1.024-1.18,2.066-1.758,2.738a4.66125,4.66125,0,0,0-1.23,2.633,5.66725,5.66725,0,0,1-.016.733c.031-.157-.441-.82-.5-1.021a5.24046,5.24046,0,0,1-.183-1.275,4.73049,4.73049,0,0,1,.862-2.907C3.51921,2.61846,5.08421,1.40546,5.82121,2.36946Z"/><path class="f" d="M16.25021,3.11146a6.229,6.229,0,0,1,2.361-.572,2.85856,2.85856,0,0,1,1.396.254.41659.41659,0,0,1,.146.582c-.17.279-.573.242-.842.221a6.80794,6.80794,0,0,0-2.742.259,6.18112,6.18112,0,0,0-1.25.559c-.254.15-1.045.555-1.139.843A3.57858,3.57858,0,0,1,16.25021,3.11146Z"/></svg>