<svg xmlns="http://www.w3.org/2000/svg" xmlns:xlink="http://www.w3.org/1999/xlink" viewBox="0 0 656.36 71.76"><defs><style>.a{fill:url(#a);}.b{fill:url(#b);}.c{fill:url(#c);}.d{fill:url(#d);}.e{fill:url(#e);}.f{fill:url(#f);}.g{fill:url(#g);}.h{fill:url(#h);}.i{fill:#140087;}</style><linearGradient id="a" x1="95.04" y1="326.72" x2="151.71" y2="326.72" gradientUnits="userSpaceOnUse"><stop offset="0" stop-color="red"/><stop offset="1" stop-color="#ff4b00"/></linearGradient><linearGradient id="b" x1="104.57" y1="284.17" x2="104.57" y2="333.31" gradientUnits="userSpaceOnUse"><stop offset="0" stop-color="#c80000"/><stop offset="1" stop-color="red"/></linearGradient><linearGradient id="c" x1="11.72" y1="53.15" x2="70.43" y2="53.15" xlink:href="#b"/><linearGradient id="d" x1="-0.19" y1="35.43" x2="23.29" y2="35.43" xlink:href="#a"/><linearGradient id="e" x1="-0.63" y1="11.81" x2="47.19" y2="11.81" xlink:href="#b"/><linearGradient id="f" x1="116.69" y1="273.57" x2="161.44" y2="273.57" xlink:href="#a"/><linearGradient id="g" x1="71.59" y1="35.43" x2="46.98" y2="35.43" xlink:href="#a"/><linearGradient id="h" x1="163.48" y1="286.25" x2="139.95" y2="286.25" xlink:href="#b"/></defs><title>canaldigitaal</title><path class="a" d="M104.57,320.82,94.49,330.9a5.89,5.89,0,0,0,4.17,1.73H140l11.81-11.81Z" transform="translate(-92.76 -261.76)"/><path class="b" d="M116.38,309h0L92.76,285.38v41.34a5.89,5.89,0,0,0,1.73,4.17l10.08-10.08L116.38,309h0Z" transform="translate(-92.76 -261.76)"/><polygon class="c" points="23.62 47.24 23.62 47.24 11.81 59.05 59.05 59.05 70.86 47.24 23.62 47.24"/><polygon class="d" points="23.62 23.62 0 23.62 23.62 47.24 23.62 23.62"/><polygon class="e" points="47.24 23.62 23.62 0 0 23.62 47.24 23.62"/><path class="f" d="M161.9,263.49a5.89,5.89,0,0,0-4.17-1.73H116.38L140,285.38Z" transform="translate(-92.76 -261.76)"/><polygon class="g" points="47.24 47.24 70.86 47.24 70.86 23.62 47.24 47.24"/><path class="h" d="M163.63,267.67a5.89,5.89,0,0,0-1.73-4.17L140,285.38h0V309l23.62-23.62h0Z" transform="translate(-92.76 -261.76)"/><path class="i" d="M185.26,309.31c0-14.76,10-24.87,24.47-24.87a24.2,24.2,0,0,1,19.75,9.38l-8.84,7.78c-3.19-3.52-6.52-5.19-10.31-5.19-6.78,0-11.9,5.39-11.9,12.7s4.92,12.43,11.84,12.43a13.33,13.33,0,0,0,10.17-4.79l9,7.65a24.43,24.43,0,0,1-19.75,9.11C195,333.52,185.26,323.88,185.26,309.31Z" transform="translate(-92.76 -261.76)"/><path class="i" d="M266.78,332.59l-2.73-6.85h-8l-6.52-8.64-5,15.49h-13.7l17.82-47.21h7.31c4,0,6.52,1.73,8,5.45l16.22,41.76Zm-6-17-5.45-16h-.2l-5.19,16Z" transform="translate(-92.76 -261.76)"/><path class="i" d="M326.23,285.38v47.21H314L295.17,305v27.59h-11.7V285.38h12.1l19,27.86V291.36c0-4,1.86-5.85,5.85-5.92Z" transform="translate(-92.76 -261.76)"/><path class="i" d="M365.72,332.59,363,325.74h-8l-6.52-8.64-5,15.49h-13.7l17.82-47.21h7.31c4,0,6.52,1.73,8,5.45l16.22,41.76Zm-6-17-5.45-16h-.2l-5.19,16Z" transform="translate(-92.76 -261.76)"/><path class="i" d="M416.13,321.48v11.1H382.75V285.38h6.78c4,0,5.85,1.86,5.85,5.85v30.25Z" transform="translate(-92.76 -261.76)"/><path class="i" d="M440.73,285.38H458c15.29,0,26.13,9.77,26.13,23.61s-10.77,23.6-25.87,23.6H440.73Zm17.09,35.84c8.64,0,13.37-4.19,13.37-12s-4.85-12.5-13.63-12.5h-4.19v24.54Z" transform="translate(-92.76 -261.76)"/><path class="i" d="M489.93,291.23c0-4,1.86-5.85,5.85-5.85h6.78v47.21H489.93Z" transform="translate(-92.76 -261.76)"/><path class="i" d="M552.84,305.59v14.83l-9.71,10.84A28.9,28.9,0,0,1,532,333.52c-14.43,0-23.8-9.44-23.8-23.94,0-15.16,10.17-25.13,25-25.13,7.25,0,13,2.39,18.29,7.78L543.79,301c-3.26-3.06-6.72-4.59-10.57-4.59-7.11,0-11.84,5.12-11.84,13S526,322,533.62,322a17.65,17.65,0,0,0,8.18-2V314.9h-8.64v-9.31Z" transform="translate(-92.76 -261.76)"/><path class="i" d="M559.29,291.27c0-4,1.86-5.85,5.85-5.85h6.78v47.21H559.29Z" transform="translate(-92.76 -261.76)"/><path class="i" d="M590.6,296.48H577v-11.1h40.1v5.25c0,4-1.86,5.85-5.85,5.85h-8v36.11H590.6Z" transform="translate(-92.76 -261.76)"/><path class="i" d="M648.52,332.59l-2.73-6.85h-8l-6.52-8.64-5,15.49h-13.7l17.82-47.21h7.31c4,0,6.52,1.73,8,5.45l16.22,41.76Zm-6-17-5.45-16h-.2l-5.19,16Z" transform="translate(-92.76 -261.76)"/><path class="i" d="M699.39,332.59l-2.73-6.85h-8l-6.52-8.64-5,15.49h-13.7l17.82-47.21h7.31c4,0,6.52,1.73,8,5.45l16.22,41.76Zm-6-17-5.45-16h-.2l-5.19,16Z" transform="translate(-92.76 -261.76)"/><path class="i" d="M749.13,321.48v11.1H715.75V285.38h6.78c4,0,5.85,1.86,5.85,5.85v30.25Z" transform="translate(-92.76 -261.76)"/></svg>